<mxfile host="app.diagrams.net" agent="Mozilla/5.0 (Windows NT 10.0; Win64; x64) AppleWebKit/537.36 (KHTML, like Gecko) Chrome/136.0.0.0 Safari/537.36" version="27.0.6">
  <diagram name="Page-1" id="zMtw91ButQq-_RUwULKP">
    <mxGraphModel dx="1489" dy="803" grid="1" gridSize="10" guides="1" tooltips="1" connect="1" arrows="1" fold="1" page="1" pageScale="1" pageWidth="827" pageHeight="1169" background="light-dark(#FFFFFF,#000000)" math="0" shadow="1" adaptiveColors="simple">
      <root>
        <mxCell id="0" />
        <mxCell id="1" parent="0" />
        <mxCell id="3Xr7Yztr4hI3ZwO242Rs-13" value="&lt;font style=&quot;font-size: 18px;&quot;&gt;Memory unit&lt;/font&gt;&lt;div&gt;&lt;font style=&quot;font-size: 18px;&quot;&gt;65535 * 8&lt;/font&gt;&lt;/div&gt;" style="rounded=0;whiteSpace=wrap;html=1;fillStyle=auto;labelBackgroundColor=none;fillColor=#182E3E;strokeColor=#FFFFFF;fontColor=#FFFFFF;" parent="1" vertex="1">
          <mxGeometry x="329" y="120" width="210" height="130" as="geometry" />
        </mxCell>
        <mxCell id="3Xr7Yztr4hI3ZwO242Rs-69" value="" style="edgeStyle=orthogonalEdgeStyle;rounded=0;orthogonalLoop=1;jettySize=auto;html=1;labelBackgroundColor=none;fontColor=default;strokeColor=#23445D;" parent="1" source="3Xr7Yztr4hI3ZwO242Rs-14" target="3Xr7Yztr4hI3ZwO242Rs-13" edge="1">
          <mxGeometry relative="1" as="geometry">
            <Array as="points">
              <mxPoint x="434" y="270" />
              <mxPoint x="600" y="270" />
              <mxPoint x="600" y="220" />
            </Array>
          </mxGeometry>
        </mxCell>
        <mxCell id="3Xr7Yztr4hI3ZwO242Rs-70" value="Address" style="edgeLabel;html=1;align=center;verticalAlign=middle;resizable=0;points=[];labelBackgroundColor=none;rounded=0;fontColor=light-dark(#000000, #121212);" parent="3Xr7Yztr4hI3ZwO242Rs-69" vertex="1" connectable="0">
          <mxGeometry x="0.4545" y="2" relative="1" as="geometry">
            <mxPoint as="offset" />
          </mxGeometry>
        </mxCell>
        <mxCell id="3Xr7Yztr4hI3ZwO242Rs-14" value="&lt;font style=&quot;font-size: 18px;&quot;&gt;MAR&lt;/font&gt;" style="rounded=0;whiteSpace=wrap;html=1;labelBackgroundColor=none;fillColor=#182E3E;strokeColor=#FFFFFF;fontColor=#FFFFFF;" parent="1" vertex="1">
          <mxGeometry x="304" y="300" width="260" height="50" as="geometry" />
        </mxCell>
        <mxCell id="3Xr7Yztr4hI3ZwO242Rs-17" value="&lt;font style=&quot;font-size: 18px;&quot;&gt;PC&lt;/font&gt;" style="rounded=0;whiteSpace=wrap;html=1;labelBackgroundColor=none;fillColor=#182E3E;strokeColor=#FFFFFF;fontColor=#FFFFFF;" parent="1" vertex="1">
          <mxGeometry x="304" y="400" width="260" height="50" as="geometry" />
        </mxCell>
        <mxCell id="3Xr7Yztr4hI3ZwO242Rs-18" value="&lt;font style=&quot;font-size: 18px;&quot;&gt;IR&lt;/font&gt;" style="rounded=0;whiteSpace=wrap;html=1;labelBackgroundColor=none;fillColor=#182E3E;strokeColor=#FFFFFF;fontColor=#FFFFFF;" parent="1" vertex="1">
          <mxGeometry x="304" y="500" width="260" height="50" as="geometry" />
        </mxCell>
        <mxCell id="3Xr7Yztr4hI3ZwO242Rs-71" value="" style="edgeStyle=orthogonalEdgeStyle;rounded=0;orthogonalLoop=1;jettySize=auto;html=1;labelBackgroundColor=none;fontColor=default;strokeColor=#23445D;" parent="1" source="3Xr7Yztr4hI3ZwO242Rs-19" target="3Xr7Yztr4hI3ZwO242Rs-20" edge="1">
          <mxGeometry relative="1" as="geometry">
            <Array as="points">
              <mxPoint x="434" y="680" />
              <mxPoint x="590" y="680" />
              <mxPoint x="590" y="730" />
            </Array>
          </mxGeometry>
        </mxCell>
        <mxCell id="3Xr7Yztr4hI3ZwO242Rs-72" value="Address" style="edgeLabel;html=1;align=center;verticalAlign=middle;resizable=0;points=[];labelBackgroundColor=none;rounded=0;fontColor=light-dark(#000000, #121212);" parent="3Xr7Yztr4hI3ZwO242Rs-71" vertex="1" connectable="0">
          <mxGeometry x="0.4174" y="-2" relative="1" as="geometry">
            <mxPoint as="offset" />
          </mxGeometry>
        </mxCell>
        <mxCell id="3Xr7Yztr4hI3ZwO242Rs-19" value="&lt;font style=&quot;font-size: 18px;&quot;&gt;MDR&lt;/font&gt;" style="rounded=0;whiteSpace=wrap;html=1;labelBackgroundColor=none;fillColor=#182E3E;strokeColor=#FFFFFF;fontColor=#FFFFFF;" parent="1" vertex="1">
          <mxGeometry x="304" y="600" width="260" height="50" as="geometry" />
        </mxCell>
        <mxCell id="3Xr7Yztr4hI3ZwO242Rs-20" value="&lt;div style=&quot;line-height: 150%;&quot;&gt;&lt;span style=&quot;font-size: 18px; line-height: 150%;&quot;&gt;General Registers Unit&lt;/span&gt;&lt;div&gt;&lt;span style=&quot;font-size: 18px; line-height: 150%;&quot;&gt;x32&lt;/span&gt;&lt;/div&gt;&lt;/div&gt;" style="rounded=0;whiteSpace=wrap;html=1;fillStyle=auto;labelBackgroundColor=none;fillColor=#182E3E;strokeColor=#FFFFFF;fontColor=#FFFFFF;" parent="1" vertex="1">
          <mxGeometry x="329" y="700" width="210" height="130" as="geometry" />
        </mxCell>
        <mxCell id="3Xr7Yztr4hI3ZwO242Rs-30" style="edgeStyle=orthogonalEdgeStyle;rounded=0;orthogonalLoop=1;jettySize=auto;html=1;entryX=0;entryY=0.25;entryDx=0;entryDy=0;labelBackgroundColor=none;fontColor=default;strokeColor=#23445D;" parent="1" source="3Xr7Yztr4hI3ZwO242Rs-26" target="3Xr7Yztr4hI3ZwO242Rs-29" edge="1">
          <mxGeometry relative="1" as="geometry" />
        </mxCell>
        <mxCell id="3Xr7Yztr4hI3ZwO242Rs-26" value="&lt;font style=&quot;font-size: 18px;&quot;&gt;RS1&lt;/font&gt;" style="rounded=0;whiteSpace=wrap;html=1;labelBackgroundColor=none;fillColor=#182E3E;strokeColor=#FFFFFF;fontColor=#FFFFFF;" parent="1" vertex="1">
          <mxGeometry x="304" y="880" width="260" height="50" as="geometry" />
        </mxCell>
        <mxCell id="3Xr7Yztr4hI3ZwO242Rs-38" style="edgeStyle=orthogonalEdgeStyle;rounded=0;orthogonalLoop=1;jettySize=auto;html=1;entryX=0.25;entryY=1;entryDx=0;entryDy=0;labelBackgroundColor=none;fontColor=default;strokeColor=#23445D;" parent="1" source="3Xr7Yztr4hI3ZwO242Rs-27" target="3Xr7Yztr4hI3ZwO242Rs-34" edge="1">
          <mxGeometry relative="1" as="geometry" />
        </mxCell>
        <mxCell id="3Xr7Yztr4hI3ZwO242Rs-27" value="&lt;font style=&quot;font-size: 18px;&quot;&gt;RS2&lt;/font&gt;" style="rounded=0;whiteSpace=wrap;html=1;labelBackgroundColor=none;fillColor=#182E3E;strokeColor=#FFFFFF;fontColor=#FFFFFF;" parent="1" vertex="1">
          <mxGeometry x="304" y="980" width="260" height="50" as="geometry" />
        </mxCell>
        <mxCell id="3Xr7Yztr4hI3ZwO242Rs-37" style="edgeStyle=orthogonalEdgeStyle;rounded=0;orthogonalLoop=1;jettySize=auto;html=1;entryX=0.75;entryY=1;entryDx=0;entryDy=0;labelBackgroundColor=none;fontColor=default;strokeColor=#23445D;" parent="1" source="3Xr7Yztr4hI3ZwO242Rs-28" target="3Xr7Yztr4hI3ZwO242Rs-34" edge="1">
          <mxGeometry relative="1" as="geometry" />
        </mxCell>
        <mxCell id="3Xr7Yztr4hI3ZwO242Rs-28" value="&lt;font style=&quot;font-size: 18px;&quot;&gt;IMM&lt;/font&gt;" style="rounded=0;whiteSpace=wrap;html=1;labelBackgroundColor=none;fillColor=#182E3E;strokeColor=#FFFFFF;fontColor=#FFFFFF;" parent="1" vertex="1">
          <mxGeometry x="304" y="1070" width="260" height="50" as="geometry" />
        </mxCell>
        <mxCell id="3Xr7Yztr4hI3ZwO242Rs-104" style="edgeStyle=orthogonalEdgeStyle;rounded=0;orthogonalLoop=1;jettySize=auto;html=1;entryX=0.5;entryY=1;entryDx=0;entryDy=0;labelBackgroundColor=none;fontColor=default;strokeColor=#23445D;" parent="1" source="3Xr7Yztr4hI3ZwO242Rs-29" target="3Xr7Yztr4hI3ZwO242Rs-101" edge="1">
          <mxGeometry relative="1" as="geometry">
            <Array as="points">
              <mxPoint x="710" y="910" />
              <mxPoint x="670" y="910" />
            </Array>
          </mxGeometry>
        </mxCell>
        <mxCell id="3Xr7Yztr4hI3ZwO242Rs-105" style="edgeStyle=orthogonalEdgeStyle;rounded=0;orthogonalLoop=1;jettySize=auto;html=1;entryX=0.5;entryY=1;entryDx=0;entryDy=0;labelBackgroundColor=none;fontColor=default;strokeColor=#23445D;" parent="1" source="3Xr7Yztr4hI3ZwO242Rs-29" target="3Xr7Yztr4hI3ZwO242Rs-102" edge="1">
          <mxGeometry relative="1" as="geometry" />
        </mxCell>
        <mxCell id="3Xr7Yztr4hI3ZwO242Rs-107" style="edgeStyle=orthogonalEdgeStyle;rounded=0;orthogonalLoop=1;jettySize=auto;html=1;entryX=0.5;entryY=1;entryDx=0;entryDy=0;labelBackgroundColor=none;fontColor=default;strokeColor=#23445D;" parent="1" source="3Xr7Yztr4hI3ZwO242Rs-29" target="3Xr7Yztr4hI3ZwO242Rs-103" edge="1">
          <mxGeometry relative="1" as="geometry">
            <Array as="points">
              <mxPoint x="750" y="910" />
              <mxPoint x="785" y="910" />
            </Array>
          </mxGeometry>
        </mxCell>
        <mxCell id="3Xr7Yztr4hI3ZwO242Rs-29" value="&lt;font style=&quot;font-size: 16px;&quot;&gt;ALU&lt;/font&gt;" style="whiteSpace=wrap;html=1;aspect=fixed;labelBackgroundColor=none;rounded=0;fillColor=#182E3E;strokeColor=#FFFFFF;fontColor=#FFFFFF;" parent="1" vertex="1">
          <mxGeometry x="690" y="940" width="80" height="80" as="geometry" />
        </mxCell>
        <mxCell id="3Xr7Yztr4hI3ZwO242Rs-35" style="edgeStyle=orthogonalEdgeStyle;rounded=0;orthogonalLoop=1;jettySize=auto;html=1;entryX=0;entryY=0.75;entryDx=0;entryDy=0;labelBackgroundColor=none;fontColor=default;strokeColor=#23445D;" parent="1" source="3Xr7Yztr4hI3ZwO242Rs-34" target="3Xr7Yztr4hI3ZwO242Rs-29" edge="1">
          <mxGeometry relative="1" as="geometry" />
        </mxCell>
        <mxCell id="3Xr7Yztr4hI3ZwO242Rs-34" value="" style="shape=trapezoid;perimeter=trapezoidPerimeter;whiteSpace=wrap;html=1;fixedSize=1;rotation=90;labelBackgroundColor=none;rounded=0;fillColor=#182E3E;strokeColor=#FFFFFF;fontColor=#FFFFFF;" parent="1" vertex="1">
          <mxGeometry x="580" y="1030" width="120" height="40" as="geometry" />
        </mxCell>
        <mxCell id="3Xr7Yztr4hI3ZwO242Rs-50" value="" style="html=1;points=[[0,0,0,0,5],[0,1,0,0,-5],[1,0,0,0,5],[1,1,0,0,-5]];perimeter=orthogonalPerimeter;outlineConnect=0;targetShapes=umlLifeline;portConstraint=eastwest;newEdgeStyle={&quot;curved&quot;:0,&quot;rounded&quot;:0};labelBackgroundColor=none;rounded=0;fillColor=#182E3E;strokeColor=#FFFFFF;fontColor=#FFFFFF;" parent="1" vertex="1">
          <mxGeometry x="847" y="80" width="10" height="1460" as="geometry" />
        </mxCell>
        <mxCell id="3Xr7Yztr4hI3ZwO242Rs-53" value="" style="html=1;points=[[0,0,0,0,5],[0,1,0,0,-5],[1,0,0,0,5],[1,1,0,0,-5]];perimeter=orthogonalPerimeter;outlineConnect=0;targetShapes=umlLifeline;portConstraint=eastwest;newEdgeStyle={&quot;curved&quot;:0,&quot;rounded&quot;:0};rotation=90;labelBackgroundColor=none;rounded=0;fillColor=#182E3E;strokeColor=#FFFFFF;fontColor=#FFFFFF;" parent="1" vertex="1">
          <mxGeometry x="480" y="1169" width="10" height="745" as="geometry" />
        </mxCell>
        <mxCell id="3Xr7Yztr4hI3ZwO242Rs-54" value="" style="html=1;points=[[0,0,0,0,5],[0,1,0,0,-5],[1,0,0,0,5],[1,1,0,0,-5]];perimeter=orthogonalPerimeter;outlineConnect=0;targetShapes=umlLifeline;portConstraint=eastwest;newEdgeStyle={&quot;curved&quot;:0,&quot;rounded&quot;:0};labelBackgroundColor=none;rounded=0;fillColor=#182E3E;strokeColor=#FFFFFF;fontColor=#FFFFFF;" parent="1" vertex="1">
          <mxGeometry x="110" y="85" width="10" height="1460" as="geometry" />
        </mxCell>
        <mxCell id="3Xr7Yztr4hI3ZwO242Rs-59" value="" style="html=1;shadow=0;dashed=0;align=center;verticalAlign=middle;shape=mxgraph.arrows2.arrow;dy=0.6;dx=40;notch=0;labelBackgroundColor=none;rounded=0;fillColor=#182E3E;strokeColor=#FFFFFF;fontColor=#FFFFFF;" parent="1" vertex="1">
          <mxGeometry x="564" y="307.5" width="280" height="35" as="geometry" />
        </mxCell>
        <mxCell id="3Xr7Yztr4hI3ZwO242Rs-60" value="" style="html=1;shadow=0;dashed=0;align=center;verticalAlign=middle;shape=mxgraph.arrows2.arrow;dy=0.6;dx=40;notch=0;labelBackgroundColor=none;rounded=0;fillColor=#182E3E;strokeColor=#FFFFFF;fontColor=#FFFFFF;" parent="1" vertex="1">
          <mxGeometry x="564" y="407.5" width="280" height="35" as="geometry" />
        </mxCell>
        <mxCell id="3Xr7Yztr4hI3ZwO242Rs-61" value="" style="html=1;shadow=0;dashed=0;align=center;verticalAlign=middle;shape=mxgraph.arrows2.arrow;dy=0.6;dx=40;notch=0;labelBackgroundColor=none;rounded=0;fillColor=#182E3E;strokeColor=#FFFFFF;fontColor=#FFFFFF;" parent="1" vertex="1">
          <mxGeometry x="564" y="507.5" width="280" height="35" as="geometry" />
        </mxCell>
        <mxCell id="3Xr7Yztr4hI3ZwO242Rs-62" value="" style="html=1;shadow=0;dashed=0;align=center;verticalAlign=middle;shape=mxgraph.arrows2.arrow;dy=0.6;dx=40;notch=0;labelBackgroundColor=none;rounded=0;fillColor=#182E3E;strokeColor=#FFFFFF;fontColor=#FFFFFF;" parent="1" vertex="1">
          <mxGeometry x="564" y="607.5" width="280" height="35" as="geometry" />
        </mxCell>
        <mxCell id="3Xr7Yztr4hI3ZwO242Rs-63" value="" style="html=1;shadow=0;dashed=0;align=center;verticalAlign=middle;shape=mxgraph.arrows2.arrow;dy=0.6;dx=40;notch=0;textShadow=0;labelBackgroundColor=none;rounded=0;fillColor=#182E3E;strokeColor=#FFFFFF;fontColor=#FFFFFF;" parent="1" vertex="1">
          <mxGeometry x="540" y="747.5" width="304" height="35" as="geometry" />
        </mxCell>
        <mxCell id="3Xr7Yztr4hI3ZwO242Rs-64" value="" style="html=1;shadow=0;dashed=0;align=center;verticalAlign=middle;shape=mxgraph.arrows2.arrow;dy=0.6;dx=40;notch=0;labelBackgroundColor=none;rounded=0;fillColor=#182E3E;strokeColor=#FFFFFF;fontColor=#FFFFFF;" parent="1" vertex="1">
          <mxGeometry x="540" y="167.5" width="304" height="35" as="geometry" />
        </mxCell>
        <mxCell id="3Xr7Yztr4hI3ZwO242Rs-68" value="" style="html=1;shadow=0;dashed=0;align=center;verticalAlign=middle;shape=mxgraph.arrows2.arrow;dy=0.6;dx=40;notch=0;textShadow=0;labelBackgroundColor=none;rounded=0;fillColor=#182E3E;strokeColor=#FFFFFF;fontColor=#FFFFFF;" parent="1" vertex="1">
          <mxGeometry x="770" y="962.5" width="70" height="35" as="geometry" />
        </mxCell>
        <mxCell id="3Xr7Yztr4hI3ZwO242Rs-73" value="" style="html=1;shadow=0;dashed=0;align=center;verticalAlign=middle;shape=mxgraph.arrows2.arrow;dy=0.6;dx=40;notch=0;labelBackgroundColor=none;rounded=0;fillColor=#182E3E;strokeColor=#FFFFFF;fontColor=#FFFFFF;" parent="1" vertex="1">
          <mxGeometry x="120" y="167.5" width="210" height="35" as="geometry" />
        </mxCell>
        <mxCell id="3Xr7Yztr4hI3ZwO242Rs-74" value="" style="html=1;shadow=0;dashed=0;align=center;verticalAlign=middle;shape=mxgraph.arrows2.arrow;dy=0.6;dx=40;notch=0;labelBackgroundColor=none;rounded=0;fillColor=#182E3E;strokeColor=#FFFFFF;fontColor=#FFFFFF;" parent="1" vertex="1">
          <mxGeometry x="120" y="307.5" width="180" height="35" as="geometry" />
        </mxCell>
        <mxCell id="3Xr7Yztr4hI3ZwO242Rs-75" value="" style="html=1;shadow=0;dashed=0;align=center;verticalAlign=middle;shape=mxgraph.arrows2.arrow;dy=0.6;dx=40;notch=0;labelBackgroundColor=none;rounded=0;fillColor=#182E3E;strokeColor=#FFFFFF;fontColor=#FFFFFF;" parent="1" vertex="1">
          <mxGeometry x="120" y="407.5" width="180" height="35" as="geometry" />
        </mxCell>
        <mxCell id="3Xr7Yztr4hI3ZwO242Rs-76" value="" style="html=1;shadow=0;dashed=0;align=center;verticalAlign=middle;shape=mxgraph.arrows2.arrow;dy=0.6;dx=40;notch=0;labelBackgroundColor=none;rounded=0;fillColor=#182E3E;strokeColor=#FFFFFF;fontColor=#FFFFFF;" parent="1" vertex="1">
          <mxGeometry x="120" y="507.5" width="180" height="35" as="geometry" />
        </mxCell>
        <mxCell id="3Xr7Yztr4hI3ZwO242Rs-77" value="" style="html=1;shadow=0;dashed=0;align=center;verticalAlign=middle;shape=mxgraph.arrows2.arrow;dy=0.6;dx=40;notch=0;labelBackgroundColor=none;rounded=0;fillColor=#182E3E;strokeColor=#FFFFFF;fontColor=#FFFFFF;" parent="1" vertex="1">
          <mxGeometry x="120" y="607.5" width="180" height="35" as="geometry" />
        </mxCell>
        <mxCell id="3Xr7Yztr4hI3ZwO242Rs-78" value="" style="html=1;shadow=0;dashed=0;align=center;verticalAlign=middle;shape=mxgraph.arrows2.arrow;dy=0.6;dx=40;notch=0;labelBackgroundColor=none;rounded=0;fillColor=#182E3E;strokeColor=#FFFFFF;fontColor=#FFFFFF;" parent="1" vertex="1">
          <mxGeometry x="120" y="747.5" width="210" height="35" as="geometry" />
        </mxCell>
        <mxCell id="3Xr7Yztr4hI3ZwO242Rs-79" value="" style="html=1;shadow=0;dashed=0;align=center;verticalAlign=middle;shape=mxgraph.arrows2.arrow;dy=0.6;dx=40;notch=0;labelBackgroundColor=none;rounded=0;fillColor=#182E3E;strokeColor=#FFFFFF;fontColor=#FFFFFF;" parent="1" vertex="1">
          <mxGeometry x="120" y="887.5" width="180" height="35" as="geometry" />
        </mxCell>
        <mxCell id="3Xr7Yztr4hI3ZwO242Rs-80" value="" style="html=1;shadow=0;dashed=0;align=center;verticalAlign=middle;shape=mxgraph.arrows2.arrow;dy=0.6;dx=40;notch=0;labelBackgroundColor=none;rounded=0;fillColor=#182E3E;strokeColor=#FFFFFF;fontColor=#FFFFFF;" parent="1" vertex="1">
          <mxGeometry x="120" y="987.5" width="180" height="35" as="geometry" />
        </mxCell>
        <mxCell id="3Xr7Yztr4hI3ZwO242Rs-81" value="" style="html=1;shadow=0;dashed=0;align=center;verticalAlign=middle;shape=mxgraph.arrows2.arrow;dy=0.6;dx=40;notch=0;labelBackgroundColor=none;rounded=0;fillColor=#182E3E;strokeColor=#FFFFFF;fontColor=#FFFFFF;" parent="1" vertex="1">
          <mxGeometry x="120" y="1077.5" width="180" height="35" as="geometry" />
        </mxCell>
        <mxCell id="3Xr7Yztr4hI3ZwO242Rs-83" value="0" style="text;html=1;align=center;verticalAlign=middle;resizable=0;points=[];autosize=1;strokeColor=none;fillColor=none;labelBackgroundColor=none;rounded=0;fontColor=#000000;" parent="1" vertex="1">
          <mxGeometry x="770" y="150" width="30" height="30" as="geometry" />
        </mxCell>
        <mxCell id="3Xr7Yztr4hI3ZwO242Rs-84" value="1" style="text;html=1;align=center;verticalAlign=middle;resizable=0;points=[];autosize=1;strokeColor=none;fillColor=none;labelBackgroundColor=none;rounded=0;fontColor=#000000;" parent="1" vertex="1">
          <mxGeometry x="770" y="290" width="30" height="30" as="geometry" />
        </mxCell>
        <mxCell id="3Xr7Yztr4hI3ZwO242Rs-85" value="2" style="text;html=1;align=center;verticalAlign=middle;resizable=0;points=[];autosize=1;strokeColor=none;fillColor=none;labelBackgroundColor=none;rounded=0;fontColor=#000000;" parent="1" vertex="1">
          <mxGeometry x="770" y="390" width="30" height="30" as="geometry" />
        </mxCell>
        <mxCell id="3Xr7Yztr4hI3ZwO242Rs-86" value="3" style="text;html=1;align=center;verticalAlign=middle;resizable=0;points=[];autosize=1;strokeColor=none;fillColor=none;labelBackgroundColor=none;rounded=0;fontColor=#000000;" parent="1" vertex="1">
          <mxGeometry x="770" y="490" width="30" height="30" as="geometry" />
        </mxCell>
        <mxCell id="3Xr7Yztr4hI3ZwO242Rs-87" value="4" style="text;html=1;align=center;verticalAlign=middle;resizable=0;points=[];autosize=1;strokeColor=none;fillColor=none;labelBackgroundColor=none;rounded=0;fontColor=#000000;" parent="1" vertex="1">
          <mxGeometry x="770" y="585" width="30" height="30" as="geometry" />
        </mxCell>
        <mxCell id="3Xr7Yztr4hI3ZwO242Rs-88" value="5" style="text;html=1;align=center;verticalAlign=middle;resizable=0;points=[];autosize=1;strokeColor=none;fillColor=none;labelBackgroundColor=none;rounded=0;fontColor=#000000;" parent="1" vertex="1">
          <mxGeometry x="770" y="730" width="30" height="30" as="geometry" />
        </mxCell>
        <mxCell id="3Xr7Yztr4hI3ZwO242Rs-89" value="6" style="text;html=1;align=center;verticalAlign=middle;resizable=0;points=[];autosize=1;strokeColor=none;fillColor=none;labelBackgroundColor=none;rounded=0;fontColor=light-dark(#000000, #121212);" parent="1" vertex="1">
          <mxGeometry x="770" y="932.5" width="30" height="30" as="geometry" />
        </mxCell>
        <mxCell id="3Xr7Yztr4hI3ZwO242Rs-92" value="S1" style="text;html=1;align=center;verticalAlign=middle;resizable=0;points=[];autosize=1;strokeColor=none;fillColor=none;labelBackgroundColor=none;rounded=0;fontColor=#000000;" parent="1" vertex="1">
          <mxGeometry x="670" y="20" width="40" height="30" as="geometry" />
        </mxCell>
        <mxCell id="3Xr7Yztr4hI3ZwO242Rs-93" value="S2" style="text;html=1;align=center;verticalAlign=middle;resizable=0;points=[];autosize=1;strokeColor=none;fillColor=none;labelBackgroundColor=none;rounded=0;fontColor=#000000;" parent="1" vertex="1">
          <mxGeometry x="670" y="50" width="40" height="30" as="geometry" />
        </mxCell>
        <mxCell id="3Xr7Yztr4hI3ZwO242Rs-94" value="S3" style="text;html=1;align=center;verticalAlign=middle;resizable=0;points=[];autosize=1;strokeColor=none;fillColor=none;labelBackgroundColor=none;rounded=0;fontColor=#000000;" parent="1" vertex="1">
          <mxGeometry x="670" y="80" width="40" height="30" as="geometry" />
        </mxCell>
        <mxCell id="3Xr7Yztr4hI3ZwO242Rs-101" value="&lt;font style=&quot;font-size: 16px;&quot;&gt;P&lt;/font&gt;" style="whiteSpace=wrap;html=1;aspect=fixed;labelBackgroundColor=none;rounded=0;fillColor=#182E3E;strokeColor=#FFFFFF;fontColor=#FFFFFF;" parent="1" vertex="1">
          <mxGeometry x="650" y="840" width="40" height="40" as="geometry" />
        </mxCell>
        <mxCell id="3Xr7Yztr4hI3ZwO242Rs-102" value="&lt;font style=&quot;font-size: 16px;&quot;&gt;N&lt;/font&gt;" style="whiteSpace=wrap;html=1;aspect=fixed;labelBackgroundColor=none;rounded=0;fillColor=#182E3E;strokeColor=#FFFFFF;fontColor=#FFFFFF;" parent="1" vertex="1">
          <mxGeometry x="710" y="840" width="40" height="40" as="geometry" />
        </mxCell>
        <mxCell id="3Xr7Yztr4hI3ZwO242Rs-103" value="&lt;span style=&quot;font-size: 16px;&quot;&gt;Z&lt;/span&gt;" style="whiteSpace=wrap;html=1;aspect=fixed;labelBackgroundColor=none;rounded=0;fillColor=#182E3E;strokeColor=#FFFFFF;fontColor=#FFFFFF;" parent="1" vertex="1">
          <mxGeometry x="765" y="840" width="40" height="40" as="geometry" />
        </mxCell>
        <mxCell id="3Xr7Yztr4hI3ZwO242Rs-108" value="&lt;font style=&quot;font-size: 16px;&quot;&gt;BUS&lt;/font&gt;" style="text;html=1;align=center;verticalAlign=middle;resizable=0;points=[];autosize=1;strokeColor=none;fillColor=none;labelBackgroundColor=none;fontColor=light-dark(#000000, #121212);" parent="1" vertex="1">
          <mxGeometry x="650" y="1515" width="60" height="30" as="geometry" />
        </mxCell>
        <mxCell id="3Xr7Yztr4hI3ZwO242Rs-109" value="" style="endArrow=none;html=1;rounded=0;strokeColor=#23445D;" parent="1" edge="1">
          <mxGeometry width="50" height="50" relative="1" as="geometry">
            <mxPoint x="40" y="10" as="sourcePoint" />
            <mxPoint x="960" y="10" as="targetPoint" />
          </mxGeometry>
        </mxCell>
        <mxCell id="3Xr7Yztr4hI3ZwO242Rs-110" value="" style="endArrow=none;html=1;rounded=0;strokeColor=#23445D;" parent="1" edge="1">
          <mxGeometry width="50" height="50" relative="1" as="geometry">
            <mxPoint x="960" y="1580" as="sourcePoint" />
            <mxPoint x="960" y="10" as="targetPoint" />
          </mxGeometry>
        </mxCell>
        <mxCell id="3Xr7Yztr4hI3ZwO242Rs-111" value="" style="endArrow=none;html=1;rounded=0;strokeColor=#23445D;" parent="1" edge="1">
          <mxGeometry width="50" height="50" relative="1" as="geometry">
            <mxPoint x="30" y="1580" as="sourcePoint" />
            <mxPoint x="960" y="1580" as="targetPoint" />
          </mxGeometry>
        </mxCell>
        <mxCell id="3Xr7Yztr4hI3ZwO242Rs-112" value="" style="endArrow=none;html=1;rounded=0;strokeColor=#23445D;" parent="1" edge="1">
          <mxGeometry width="50" height="50" relative="1" as="geometry">
            <mxPoint x="40" y="1580" as="sourcePoint" />
            <mxPoint x="40" as="targetPoint" />
          </mxGeometry>
        </mxCell>
        <mxCell id="3Xr7Yztr4hI3ZwO242Rs-115" value="&lt;span style=&quot;font-size: 18px;&quot;&gt;INPR&lt;/span&gt;" style="rounded=0;whiteSpace=wrap;html=1;labelBackgroundColor=none;fillColor=#182E3E;strokeColor=#FFFFFF;fontColor=#FFFFFF;" parent="1" vertex="1">
          <mxGeometry x="304" y="1160" width="260" height="50" as="geometry" />
        </mxCell>
        <mxCell id="3Xr7Yztr4hI3ZwO242Rs-139" style="edgeStyle=orthogonalEdgeStyle;shape=flexArrow;rounded=0;orthogonalLoop=1;jettySize=auto;html=1;entryX=0.5;entryY=1;entryDx=0;entryDy=0;strokeColor=#23445D;" parent="1" source="3Xr7Yztr4hI3ZwO242Rs-116" target="3Xr7Yztr4hI3ZwO242Rs-131" edge="1">
          <mxGeometry relative="1" as="geometry" />
        </mxCell>
        <mxCell id="3Xr7Yztr4hI3ZwO242Rs-116" value="&lt;font style=&quot;font-size: 18px;&quot;&gt;OUTR&lt;/font&gt;" style="rounded=0;whiteSpace=wrap;html=1;labelBackgroundColor=none;fillColor=#182E3E;strokeColor=#FFFFFF;fontColor=#FFFFFF;" parent="1" vertex="1">
          <mxGeometry x="304" y="1455" width="260" height="50" as="geometry" />
        </mxCell>
        <mxCell id="3Xr7Yztr4hI3ZwO242Rs-117" value="" style="html=1;shadow=0;dashed=0;align=center;verticalAlign=middle;shape=mxgraph.arrows2.arrow;dy=0.6;dx=40;notch=0;labelBackgroundColor=none;rounded=0;fillColor=#182E3E;strokeColor=#FFFFFF;fontColor=#FFFFFF;" parent="1" vertex="1">
          <mxGeometry x="564" y="1167.5" width="280" height="35" as="geometry" />
        </mxCell>
        <mxCell id="3Xr7Yztr4hI3ZwO242Rs-119" value="" style="html=1;shadow=0;dashed=0;align=center;verticalAlign=middle;shape=mxgraph.arrows2.arrow;dy=0.6;dx=40;notch=0;labelBackgroundColor=none;rounded=0;fillColor=#182E3E;strokeColor=#FFFFFF;fontColor=#FFFFFF;" parent="1" vertex="1">
          <mxGeometry x="120" y="1167.5" width="184" height="35" as="geometry" />
        </mxCell>
        <mxCell id="3Xr7Yztr4hI3ZwO242Rs-120" value="" style="html=1;shadow=0;dashed=0;align=center;verticalAlign=middle;shape=mxgraph.arrows2.arrow;dy=0.6;dx=40;notch=0;labelBackgroundColor=none;rounded=0;fillColor=#182E3E;strokeColor=#FFFFFF;fontColor=#FFFFFF;" parent="1" vertex="1">
          <mxGeometry x="120" y="1462.5" width="184" height="35" as="geometry" />
        </mxCell>
        <mxCell id="3Xr7Yztr4hI3ZwO242Rs-121" value="7" style="text;html=1;align=center;verticalAlign=middle;resizable=0;points=[];autosize=1;strokeColor=none;fillColor=none;labelBackgroundColor=none;rounded=0;fontColor=light-dark(#000000, #121212);" parent="1" vertex="1">
          <mxGeometry x="770" y="1150" width="30" height="30" as="geometry" />
        </mxCell>
        <mxCell id="3Xr7Yztr4hI3ZwO242Rs-138" style="edgeStyle=orthogonalEdgeStyle;shape=flexArrow;rounded=0;orthogonalLoop=1;jettySize=auto;html=1;entryX=0.5;entryY=1;entryDx=0;entryDy=0;strokeColor=#23445D;" parent="1" source="3Xr7Yztr4hI3ZwO242Rs-131" target="3Xr7Yztr4hI3ZwO242Rs-115" edge="1">
          <mxGeometry relative="1" as="geometry" />
        </mxCell>
        <mxCell id="3Xr7Yztr4hI3ZwO242Rs-131" value="&lt;font style=&quot;font-size: 15px;&quot;&gt;Interface Circuit&lt;/font&gt;" style="ellipse;whiteSpace=wrap;html=1;strokeColor=#FFFFFF;fontColor=#FFFFFF;fillColor=#182E3E;" parent="1" vertex="1">
          <mxGeometry x="490" y="1275" width="230" height="105" as="geometry" />
        </mxCell>
        <mxCell id="3Xr7Yztr4hI3ZwO242Rs-134" value="" style="html=1;shadow=0;dashed=0;align=center;verticalAlign=middle;shape=mxgraph.arrows2.arrow;dy=0.6;dx=40;notch=0;labelBackgroundColor=none;rounded=0;fillColor=#182E3E;strokeColor=#FFFFFF;fontColor=#FFFFFF;" parent="1" vertex="1">
          <mxGeometry x="567" y="1462.5" width="280" height="35" as="geometry" />
        </mxCell>
        <mxCell id="3Xr7Yztr4hI3ZwO242Rs-140" value="8" style="text;html=1;align=center;verticalAlign=middle;resizable=0;points=[];autosize=1;strokeColor=none;fillColor=none;labelBackgroundColor=none;rounded=0;fontColor=light-dark(#000000, #121212);" parent="1" vertex="1">
          <mxGeometry x="775" y="1450" width="30" height="30" as="geometry" />
        </mxCell>
        <mxCell id="3Xr7Yztr4hI3ZwO242Rs-146" value="S4" style="text;html=1;align=center;verticalAlign=middle;resizable=0;points=[];autosize=1;strokeColor=none;fillColor=none;labelBackgroundColor=none;rounded=0;fontColor=#000000;" parent="1" vertex="1">
          <mxGeometry x="670" y="110" width="40" height="30" as="geometry" />
        </mxCell>
        <mxCell id="3Xr7Yztr4hI3ZwO242Rs-158" value="&lt;font style=&quot;font-size: 18px;&quot;&gt;BUS&lt;/font&gt;" style="shape=cylinder3;whiteSpace=wrap;html=1;boundedLbl=1;backgroundOutline=1;size=15;strokeColor=#FFFFFF;fontColor=#FFFFFF;fillColor=#182E3E;" parent="1" vertex="1">
          <mxGeometry x="800.34" y="25" width="103.31" height="110" as="geometry" />
        </mxCell>
        <mxCell id="3Xr7Yztr4hI3ZwO242Rs-167" style="edgeStyle=orthogonalEdgeStyle;rounded=0;orthogonalLoop=1;jettySize=auto;html=1;entryX=-0.007;entryY=0.22;entryDx=0;entryDy=0;entryPerimeter=0;strokeColor=#23445D;" parent="1" source="3Xr7Yztr4hI3ZwO242Rs-92" target="3Xr7Yztr4hI3ZwO242Rs-158" edge="1">
          <mxGeometry relative="1" as="geometry" />
        </mxCell>
        <mxCell id="3Xr7Yztr4hI3ZwO242Rs-168" style="edgeStyle=orthogonalEdgeStyle;rounded=0;orthogonalLoop=1;jettySize=auto;html=1;entryX=-0.01;entryY=0.403;entryDx=0;entryDy=0;entryPerimeter=0;strokeColor=#23445D;" parent="1" source="3Xr7Yztr4hI3ZwO242Rs-93" target="3Xr7Yztr4hI3ZwO242Rs-158" edge="1">
          <mxGeometry relative="1" as="geometry" />
        </mxCell>
        <mxCell id="3Xr7Yztr4hI3ZwO242Rs-169" style="edgeStyle=orthogonalEdgeStyle;rounded=0;orthogonalLoop=1;jettySize=auto;html=1;entryX=-0.007;entryY=0.586;entryDx=0;entryDy=0;entryPerimeter=0;strokeColor=#23445D;" parent="1" source="3Xr7Yztr4hI3ZwO242Rs-94" target="3Xr7Yztr4hI3ZwO242Rs-158" edge="1">
          <mxGeometry relative="1" as="geometry" />
        </mxCell>
        <mxCell id="3Xr7Yztr4hI3ZwO242Rs-170" style="edgeStyle=orthogonalEdgeStyle;rounded=0;orthogonalLoop=1;jettySize=auto;html=1;entryX=-0.004;entryY=0.767;entryDx=0;entryDy=0;entryPerimeter=0;strokeColor=#23445D;" parent="1" source="3Xr7Yztr4hI3ZwO242Rs-146" target="3Xr7Yztr4hI3ZwO242Rs-158" edge="1">
          <mxGeometry relative="1" as="geometry" />
        </mxCell>
      </root>
    </mxGraphModel>
  </diagram>
</mxfile>
